<?xml version="1.0" encoding="utf-8"?>
<!-- Generator: Adobe Illustrator 17.1.0, SVG Export Plug-In . SVG Version: 6.00 Build 0)  -->
<!DOCTYPE svg PUBLIC "-//W3C//DTD SVG 1.1//EN" "http://www.w3.org/Graphics/SVG/1.1/DTD/svg11.dtd">
<svg version="1.1" id="Layer_1" xmlns="http://www.w3.org/2000/svg" xmlns:xlink="http://www.w3.org/1999/xlink" x="0px" y="0px"
	 width="1793.5px" height="532.9px" viewBox="0 0 1793.5 532.9" enable-background="new 0 0 1793.5 532.9" xml:space="preserve">
<g>
	<g>
		<path fill="#1B449C" d="M77.1,160.2v0.2l-3.7,31.3c-1.3,9.6-3.2,29-5.6,58.1c-1.3,16.4-2.7,39.8-4.2,70.1c-1.3,27.8-2,51.9-2,72.3
			c0,7.3,1.1,13.7,3.2,19l3.2,7.3c0.3,1.3,0.5,2.2,0.5,2.7c0,4.6-2.6,8.5-7.8,11.7c-5.2,3.3-11.4,4.9-18.6,4.9c-7.5,0-14-2-19.5-6.1
			c-5.5-4.1-9.3-9.6-11.2-16.6c-0.8-3.4-1.6-8.6-2.4-15.6c-0.7-5.7-1-14.1-1-25.1c0-5,0.1-9.6,0.2-13.5c0.2-4,0.4-9.2,0.7-15.6
			c0.3-6.4,0.7-13.7,1.1-21.9c0.4-8.1,0.9-17.7,1.3-28.6c1.6-24.7,3.2-44.4,4.6-59.1c1.6-20.5,2.9-35,3.9-43.5
			c0.3-2.3,0.6-4.5,0.9-6.7c0.2-2.2,0.4-4.4,0.6-6.5c0.3-2.3,0.6-4.5,0.9-6.7c0.2-2.2,0.4-4.4,0.6-6.5c0-0.6,0.1-1.4,0.2-2.2
			c-3.4-0.2-6.2-0.7-8.3-1.7c-2.6-1.3-5.3-3.7-8.1-7.3C2.3,148.1,0,140.5,0,131.9c0-7,1.6-12.6,4.9-16.8C8,111,12.5,109,18.3,109
			c0.6,0,2.6,0,5.9,0.1c3.3,0.1,6.8,0.2,10.5,0.4h3.7c0.5,0.2,1.4,0.2,2.7,0.2c6,0,18.1-0.7,36.4-2.2c1.8-0.2,8.8-0.7,21-1.7
			c8.9-0.8,13.7-1.2,14.2-1.2l31-1.7c22.5-1.5,38.2-2.2,47.1-2.2c15.5,0,26.4,2.2,33,6.6c6.5,4.6,9.8,11.8,9.8,21.7
			c0,5.2-0.8,9.8-2.4,13.7c0,0.5-0.1,1.2-0.2,2.2c-0.2,1.1-0.5,3-0.9,5.5c-0.4,2.5-0.9,5.9-1.3,10.1l-3.7,31.3
			c-1.3,9.6-3.2,29-5.6,58.1c-1.3,16.4-2.7,39.8-4.2,70.1c-1.3,27.8-2,51.9-2,72.3c0,7.3,1.1,13.7,3.2,19l3.2,7.3
			c0.3,1.3,0.5,2.2,0.5,2.7c0,4.6-2.6,8.5-7.8,11.7c-5.2,3.3-11.4,4.9-18.6,4.9c-7.5,0-14-2-19.5-6.1c-5.5-4.1-9.3-9.6-11.2-16.6
			c-0.8-3.4-1.6-8.6-2.4-15.6c-0.7-5.7-1-14.1-1-25.1c0-5,0.1-9.6,0.2-13.5c0.2-4,0.4-9.2,0.7-15.6c0.3-6.4,0.7-13.7,1.1-21.9
			c0.4-8.1,0.9-17.7,1.3-28.6c1.6-24.7,3.2-44.4,4.6-59.1c1.6-20.5,2.9-35,3.9-43.5c0.3-2.3,0.6-4.5,0.9-6.7
			c0.2-2.2,0.4-4.4,0.6-6.5c0.3-2.3,0.6-4.5,0.9-6.7c0.2-2.2,0.4-4.4,0.6-6.5c0.5-5.5,0.9-10.2,1.2-13.9c-7,0-12.5,0.2-16.4,0.5
			c-14.8,0.8-30.8,2.1-47.9,3.9l-26.1,2.9C81.8,159.7,79.1,160.1,77.1,160.2z"/>
		<path fill="#1B449C" d="M401.6,156.8c-4.2,35.2-7.6,70.1-10,104.7c-2.1,30.3-3.2,58.9-3.2,85.9c0,21.6,0.2,36.4,0.7,44.2
			c0.5,8.1,1.5,14.4,3.2,18.8c2.3,6,3.4,9.9,3.4,11.7c0,4.4-2.9,8.2-8.8,11.5c-6,3.4-13,5.1-21,5.1c-6.5,0-12.1-1.9-16.8-5.6
			c-4.9-3.7-8.3-8.8-10.3-15.1c-2.9-10.1-4.4-27.4-4.4-52c0-25.1,0.9-58.3,2.7-99.9c1-22.1,3.3-54.2,6.8-96.2l0.7-9
			c-4.1,0.5-6.8,0.7-8.1,0.7l-17.6,1.7c-8.5,1.1-18.2,1.7-29.1,1.7c-5.2,0-9.3-0.6-12.2-2c-2.6-1.3-5.3-3.7-8.1-7.3
			c-4.6-6.5-6.8-14.1-6.8-22.7c0-7,1.6-12.6,4.9-16.8c3.1-4.1,7.6-6.1,13.4-6.1c0.6,0,2.6,0,5.9,0.1c3.3,0.1,6.8,0.2,10.5,0.4h3.7
			c0.5,0.2,1.4,0.2,2.7,0.2c6,0,18.1-0.7,36.4-2.2c1.8-0.2,8.8-0.7,21-1.7c8.9-0.8,13.7-1.2,14.2-1.2l31-1.7
			c22.5-1.5,38.2-2.2,47.1-2.2c15.5,0,26.4,2.2,33,6.6c6.5,4.6,9.8,11.8,9.8,21.7c0,7.8-1.8,14.1-5.4,18.8c-3.6,5-8.1,7.6-13.7,7.6
			c-0.8,0-3-0.2-6.6-0.5l-14.4-2.2c1,0-1.5-0.2-7.3-0.5h-2.7c-0.7-0.2-1.5-0.2-2.4-0.2c-9.6,0-16.8,0.2-21.7,0.5
			C420,153.8,413.2,154.9,401.6,156.8z"/>
		<path fill="#1B449C" d="M572.8,318.9l-6.3,0.5l-0.5,8.3c-0.8,18.7-1.2,29.1-1.2,31.3c0,9.8,0.9,16.3,2.7,19.5
			c1.8,3.3,5.5,4.9,11.2,4.9c3.3,0,7.6-0.2,12.9-0.7c2.9-0.2,9.2-0.4,18.8-0.7l17.6-0.7H644c20.5,0,34.7,2.1,42.7,6.3
			c4.7,2.4,8.5,5.9,11.5,10.3c2.8,4.7,4.2,9.4,4.2,14.2c0,4.2-0.8,8.3-2.4,12.2c-1.8,4.2-4,7.6-6.6,10c-2.6,2.6-5.3,3.9-8.1,3.9
			c-0.7,0-1.8-0.2-3.4-0.5l-6.1-1.7c-10.3-2.8-24.3-4.2-42-4.2c-12.4,0-24,0.3-34.9,1c-19.7,0.8-33,1.7-39.8,2.7
			c-10.9,1.6-19.1,2.4-24.7,2.4c-9.6,0-15.9-4.5-18.8-13.4c-2.9-9.1-4.4-23.1-4.4-42c0-7.8,0.2-16.9,0.5-27.3c0-3.1,0.1-5.8,0.2-8.1
			c0.2-1.1,0.3-2.5,0.4-4c0.1-1.5,0.1-2.8,0.1-3.8c0-0.3,0.2-3.9,0.5-10.7l0.2-6.3c-7.8-11.6-11.7-20.8-11.7-27.8
			c0-4.1,1.1-7.5,3.4-10.3c2.4-2.9,6-5.5,10.7-7.8c0.6-10.6,1.5-21.4,2.4-32.5c1.8-19.5,4.1-38.9,6.8-58.1
			c2.1-13.5,3.3-21.5,3.4-23.9l0.7-5.6c-4.6-8.9-6.8-15.5-6.8-19.5c0-11.4,8.5-19.6,25.6-24.7c16.8-5,44.1-7.6,82-7.6
			c25.1,0,42.2,1.8,51.3,5.4c12.7,5,19,13.3,19,24.9c0,6-2,11.9-5.9,17.6c-3.9,5.5-8.1,8.3-12.5,8.3h-1.5l-5.6-2.4
			c-3.9-1.5-13.9-2.2-30-2.2c-16.6,0-29.5,0.3-38.8,1c-8.5,0.5-14.4,1.2-17.8,2.2c-3.6,1-5.9,2.8-7.1,5.4c-1.5,2.6-2.4,7-2.9,13.2
			c0,1.6-0.5,5.4-1.5,11.2c-1.3,9.9-2.9,27.1-4.9,51.5c-0.7,5.4-1.2,14.7-1.7,28.1c17.6-1.5,33.3-2.2,47.1-2.2
			c23.6,0,40.3,2.2,50,6.6c9.8,4.4,14.6,12,14.6,22.9c0,6.5-1.8,12.3-5.4,17.3c-3.7,5.2-7.7,7.8-12,7.8c-1.3,0-2.6-0.3-3.9-1
			c-2.4-1-6.7-1.9-12.7-2.7c-5-0.6-12.4-1-22-1c-5.2,0-12.9,0.2-22.9,0.7c-2.6,0.2-7.6,0.4-14.9,0.7c-2.1,0.2-4.2,0.3-6.1,0.5
			c-2,0.2-3.7,0.3-5.4,0.5C575,318.8,573.7,318.9,572.8,318.9z"/>
		<path fill="#1B449C" d="M743.9,272c0.2-6.3,1.2-19,3.2-38.1l3.2-31.7l3.4-32l0.7-7.3c-11.4-4.6-17.1-11.6-17.1-21.2
			c0-6.3,2.2-11.8,6.6-16.4c4.2-4.7,10.6-8.1,19-10.3c7-6.7,13.6-10,19.8-10c8.6,0,15.7,3.3,21.2,9.8l8.3,0.7
			c10.1,1,21,2.5,32.7,4.6c9.3,2,17.7,4.2,25.1,6.6c7.3,2.4,15.4,5.9,24.2,10.3c15.3,7.8,27.3,18.2,35.9,31.3
			c8.6,13,12.9,26.9,12.9,41.7c0,18.1-6,34.3-18.1,48.8c-11.9,14.3-29.6,26.8-53.2,37.4c-4.2,2-9.4,4-15.6,6.1
			c-6,2.1-13.1,4.3-21.2,6.6c-9.6,2.6-17.1,4.4-22.5,5.4c-11.1,2-17.1,3-18.1,3.2c-0.2,2.4-0.3,5.1-0.4,8.1
			c-0.1,2.9-0.4,7.5-0.9,13.7c-0.5,13.7-0.7,28.4-0.7,44.2c0,11.1,0.9,19,2.7,23.9l3.7,9.3c0.6,1.8,1,3.4,1,4.9
			c0,4.1-2.6,7.8-7.8,11.2c-5.4,3.4-11.4,5.1-18.1,5.1c-12.4,0-21.2-4.6-26.6-13.7c-5.5-8.9-8.3-23.4-8.3-43.5
			c0-11.1,0.6-32.2,2-63.5l0.2-7.8c-7.2-10.6-10.7-18.8-10.7-24.7c0-3.4,1.1-6.2,3.2-8.3C735.6,274.5,739,273,743.9,272z
			 M797.9,266.2c19-1.6,37.5-6.8,55.4-15.4c27.2-12.7,40.8-27.1,40.8-43.2c0-8.1-3.3-15.5-9.8-22c-6.3-6.5-15.5-11.7-27.6-15.6
			c-11.7-3.9-24.3-5.9-37.6-5.9c-2.3,0-6,0.2-11.2,0.7l-0.7,6.3c-1,9.9-1.9,18.3-2.8,25.1c-0.9,6.8-1.6,12.2-2.1,16.1
			c-0.3,3.1-0.7,6.2-1,9.4c-0.3,3.2-0.6,6.1-0.9,8.8c-0.2,2.7-0.5,4.8-0.6,6.5C799.5,239.7,798.8,249.4,797.9,266.2z"/>
		<path fill="#1B449C" d="M1093.5,113.1c6.2-1.1,11.7-1.7,16.6-1.7c15.3,0,28.8,5.6,40.5,16.8c11.6,11.2,20.6,26.9,27.1,47.1
			c6.3,20.2,9.5,43.6,9.5,70.3c0,23.6-2.5,47-7.6,70.1c-5,23.4-11.9,43.4-20.5,59.8c-21.8,41.8-53.1,62.7-94,62.7
			c-19.7,0-36.7-5.5-51-16.4c-7.7-6-14.1-12.8-19.3-20.3c-5.2-7.5-9.8-16.5-13.9-27.1c-7.7-21-11.5-45.6-11.5-73.7
			c0-22.5,3-46,9-70.6c6.2-25.2,14.1-47.9,23.7-68.1c9.6-20.3,20.3-36.8,32-49.3c11.6-12.5,22.7-18.8,33.4-18.8
			C1079.3,94.1,1088,100.4,1093.5,113.1z M1040.3,207.3c-10.6,31.7-15.9,63.1-15.9,94c0,18.6,1.8,34.2,5.4,46.9
			c3.4,13,8.5,22.9,15.1,29.5c6.7,6.7,14.6,10,23.7,10c20.3,0,36.2-15.6,47.6-46.9c5.2-13.8,9.4-30.3,12.7-49.3
			c2.9-18.9,4.4-36.9,4.4-54.2c0-54.4-12.9-81.5-38.6-81.5c-8.1,0-15.5,3-22,9c-6.8,6.2-12.1,14.6-15.9,25.1l-3.4,9.3
			C1051.8,204.7,1047.4,207.3,1040.3,207.3z"/>
	</g>
	<g>
		<path fill="#1B449C" d="M1345.4,162.7c40.8,18.7,82.3,46,124.4,82c15.3-28,23.4-55.3,24.3-81.7l7.2,2.7c3.6,21-1.1,49.8-14.4,86.5
			c76.6,29.2,129.7,55.8,159.3,80c21.4-25.1,45.9-66.1,73.5-123.2c27.6-57.1,49.7-126.7,66.3-209l7.5,0.7
			c0.2,86.8-12.9,160-39.3,219.6c-26.4,59.6-52.3,102.7-77.6,129.4c12.1,5.7,22.4,9.1,31.1,10.3c8.7,1.1,17.4,3,26.3,5.5
			c13,4.1,22.7,13,29.1,26.7c7.7,28.5-1.5,48.7-27.7,60.5c-28.9,7.7-49.7-0.8-62.2-25.6c-2.3-6.2-4.2-15.7-5.8-28.7
			c-1.1-8.9-4.8-17.7-10.9-26.3c-49,53.5-124,101.9-224.9,144.9l-37.9,16.1l-2.4-6.2l74.5-40.7c79.1-51.5,134.9-98.2,167.5-140.1
			c-21-21.2-71.4-48.9-151.4-83.1c-20.5,23.9-46,41.8-76.6,53.7l-3.8-5.5c20.7-8.9,41.2-27.2,61.5-55l-50.6-13.3
			c-18-28.7-41.5-53.4-70.4-74.2L1345.4,162.7z M1667.4,362.6c8.2,12.1,12.9,23.8,14,35c1.1,11.3,3.3,20.1,6.5,26.5
			c12.3-28,32.9-37.1,61.9-27.3c-6.2-12.8-17.5-19.8-34.2-21C1698.9,374.6,1682.8,370.2,1667.4,362.6z M1688.2,425.5
			c12.1,14.1,26.7,18.1,43.8,12c16.6-8,22.7-21,18.1-39C1736.9,427.7,1716.2,436.7,1688.2,425.5z M1708.7,407.4
			c-1.8,5.7,0,10,5.5,13c6.8,2.5,12.1,0.5,15.7-6.2c1.8-6.2,0-10.7-5.5-13.7C1717.4,398.5,1712.1,400.8,1708.7,407.4z"/>
	</g>
</g>
</svg>
